<?xml version="1.0" encoding="utf-8"?>
<!DOCTYPE svg PUBLIC "-//W3C//DTD SVG 1.1//EN" "http://www.w3.org/Graphics/SVG/1.1/DTD/svg11.dtd">
<svg version="1.1" id="Layer_1" xmlns="http://www.w3.org/2000/svg" xmlns:xlink="http://www.w3.org/1999/xlink" x="0px" y="0px"
	 viewBox="0 0 64 64" enable-background="new 0 0 64 64" xml:space="preserve" width="64px" height="64px">
<g>
	<g>
		<g>
			<path fill="#475F8E" d="M32,0c17.7,0,32,14.3,32,32S49.7,64,32,64S0,49.7,0,32S14.3,0,32,0z"/>
		</g>
	</g>
</g>
<g id="XMLID_4_">
	<g>
		<g>
			<g>
				<path fill="#B8CAD1" d="M51.2,17c1.5,3.2,0.9,7.2-1.7,9.9c-2.5,2.6-6.1,3.2-9.2,1.9L39,30.2l-1.7-1.6v0c0.2-0.2,0.4-0.6,0.4-0.9
					s-0.1-0.7-0.4-0.9c-0.5-0.5-1.3-0.5-1.8,0l-9,9L25,34.1l10.4-10.4c-1.1-3.1-0.4-6.6,2-9.1c2.6-2.7,6.4-3.2,9.5-1.8l-4.4,4.4
					c-1.2,1.2-1.2,3.1,0,4.2c1.2,1.2,3.1,1.2,4.2,0L51.2,17z"/>
			</g>
		</g>
		<g>
			<g>
				<path fill="#B8CAD1" d="M39,30.2L28.6,40.5c0.9,3,0.2,6.5-2.1,8.9c-2.6,2.7-6.4,3.2-9.5,1.8l5-5.1c1.2-1.2,1.2-3.1,0-4.2
					c-1.2-1.2-3.1-1.2-4.2,0l-5,5c-1.5-3.2-0.9-7.2,1.7-9.9c2.6-2.6,6.3-3.2,9.4-1.8l1.1-1.1l1.5,1.5c-0.2,0.2-0.4,0.6-0.4,0.9
					c0,0.3,0.1,0.7,0.4,0.9c0.5,0.5,1.3,0.5,1.8,0l9-8.9L39,30.2z"/>
			</g>
		</g>
		<g>
			<g>
				<path fill="#8499A3" d="M37.3,26.7c0.2,0.2,0.4,0.6,0.4,0.9s-0.1,0.7-0.4,0.9v0l-9,8.9c-0.5,0.5-1.3,0.5-1.8,0
					c-0.2-0.2-0.4-0.6-0.4-0.9c0-0.3,0.1-0.7,0.4-0.9l9-9C36,26.2,36.8,26.2,37.3,26.7z"/>
			</g>
		</g>
	</g>
</g>
</svg>
