<?xml version="1.0" encoding="utf-8"?>
<!-- Generator: Adobe Illustrator 18.0.0, SVG Export Plug-In . SVG Version: 6.00 Build 0)  -->
<!DOCTYPE svg PUBLIC "-//W3C//DTD SVG 1.1//EN" "http://www.w3.org/Graphics/SVG/1.1/DTD/svg11.dtd">
<svg version="1.1" id="Layer_1" xmlns="http://www.w3.org/2000/svg" xmlns:xlink="http://www.w3.org/1999/xlink" x="0px" y="0px"
	 viewBox="0 0 64 64" enable-background="new 0 0 64 64" xml:space="preserve" width="64px" height="64px">
<g>
	<g>
		<g>
			<g>
				<path fill="#E6E9ED" d="M32,0c17.7,0,32,14.3,32,32S49.7,64,32,64S0,49.7,0,32S14.3,0,32,0z"/>
			</g>
		</g>
	</g>
	<g id="XMLID_10_">
		<g>
			<g>
				<g>
					<g>
						<polygon fill="#EFC75E" points="33,12 13,19.3 13,43.6 33,52 53,43.6 53,19.1 						"/>
					</g>
				</g>
			</g>
			<g>
				<g>
					<g>
						<polygon fill="#E7BF55" points="53,19.1 53,43.6 33,52 33,26.2 						"/>
					</g>
				</g>
			</g>
			<g>
				<g>
					<g>
						<polygon fill="#F7E3AF" points="45.9,21.7 45.9,28.1 40.7,30.1 40.7,23.6 40.5,23.5 45.8,21.6 						"/>
					</g>
				</g>
			</g>
			<g>
				<g>
					<g>
						<polygon fill="#FFEDC5" points="45.8,21.6 40.5,23.5 21.4,16.5 21.3,16.2 26.5,14.4 26.5,14.6 						"/>
					</g>
				</g>
			</g>
			<g>
				<g>
					<g>
						<polygon fill="#D3A644" points="33,26.2 33,52 13,43.6 13,19.3 						"/>
					</g>
				</g>
			</g>
		</g>
	</g>
	<g>
		<g>
			<g>
				<polygon fill="#FFFFFF" points="35,44 42,41 42,45 35,48 				"/>
			</g>
		</g>
	</g>
</g>
</svg>
