<?xml version="1.0" encoding="utf-8"?>
<!-- Generator: Adobe Illustrator 18.0.0, SVG Export Plug-In . SVG Version: 6.00 Build 0)  -->
<!DOCTYPE svg PUBLIC "-//W3C//DTD SVG 1.1//EN" "http://www.w3.org/Graphics/SVG/1.1/DTD/svg11.dtd">
<svg version="1.1" id="Layer_1" xmlns="http://www.w3.org/2000/svg" xmlns:xlink="http://www.w3.org/1999/xlink" x="0px" y="0px"
	 viewBox="0 0 64 64" enable-background="new 0 0 64 64" xml:space="preserve" width="64px" height="64px">
<g>
	<g>
		<g>
			<path fill="#316CFF" d="M32,0c17.7,0,32,14.3,32,32S49.7,64,32,64S0,49.7,0,32S14.3,0,32,0z"/>
		</g>
	</g>
	<g>
		<g>
			<path fill="#444C63" d="M46,15h-4h-1H18c-1.1,0-2,0.9-2,2v34c0,1.1,0.9,2,2,2h28c1.1,0,2-0.9,2-2V17C48,15.9,47.1,15,46,15z"/>
		</g>
	</g>
	<g>
		<g>
			<path fill="#FFFFFF" d="M45,19v30c0,0.5-0.5,1-1,1H20c-0.5,0-1-0.5-1-1V19c0-0.5,0.5-1,1-1h24C44.5,18,45,18.5,45,19z"/>
		</g>
	</g>
	<g>
		<g>
			<polygon fill="#29CE7F" points="40,30 29,40 24,35 26,33 29,36 38,28 			"/>
		</g>
	</g>
	<g>
		<g>
			<path fill="#FFB533" d="M36,13c0-2.4-1.6-4-4-4s-4,1.6-4,4h-5v2v5h18v-5v-2H36z M32,14.5c-0.8,0-1.5-0.7-1.5-1.5
				c0-0.8,0.7-1.5,1.5-1.5s1.5,0.7,1.5,1.5C33.5,13.8,32.8,14.5,32,14.5z"/>
		</g>
	</g>
	<g>
		<g>
			<rect x="23" y="17.2" fill="#FFD05C" width="18" height="2.8"/>
		</g>
	</g>
</g>
</svg>
