<?xml version="1.0" encoding="utf-8"?>
<!-- Generator: Adobe Illustrator 18.0.0, SVG Export Plug-In . SVG Version: 6.00 Build 0)  -->
<!DOCTYPE svg PUBLIC "-//W3C//DTD SVG 1.1//EN" "http://www.w3.org/Graphics/SVG/1.1/DTD/svg11.dtd">
<svg version="1.1" id="Layer_1" xmlns="http://www.w3.org/2000/svg" xmlns:xlink="http://www.w3.org/1999/xlink" x="0px" y="0px"
	 viewBox="0 0 64 64" enable-background="new 0 0 64 64" xml:space="preserve" width="64px" height="64px">
<g>
	<g>
		<g>
			<path fill="#80C4D6" d="M32,0c17.7,0,32,14.3,32,32S49.7,64,32,64S0,49.7,0,32S14.3,0,32,0z"/>
		</g>
	</g>
	<g>
		<g>
			<path fill="#777793" d="M20,47l-1.3,4.6c-0.2,0.9,0.7,1.6,1.5,1.1L25,50"/>
		</g>
	</g>
	<g>
		<g>
			<path fill="#777793" d="M44,47l1.3,4.6c0.2,0.9-0.7,1.6-1.5,1.1L39,50"/>
		</g>
	</g>
	<g>
		<g>
			<path fill="#514F6D" d="M32,14c10.5,0,19,8.5,19,19s-8.5,19-19,19s-19-8.5-19-19S21.5,14,32,14z"/>
		</g>
	</g>
	<g>
		<g>
			<path fill="#F9F7E4" d="M32,18c8.3,0,15,6.7,15,15s-6.7,15-15,15s-15-6.7-15-15S23.7,18,32,18z"/>
		</g>
	</g>
	<g>
		<g>
			<path fill="#FCDA4F" d="M22,14.1L12.1,24c-2.7-2.7-2.7-7.2,0-9.9S19.3,11.3,22,14.1z"/>
		</g>
	</g>
	<g>
		<g>
			<path fill="#FCDA4F" d="M42,14.1l9.9,9.9c2.7-2.7,2.7-7.2,0-9.9C49.2,11.3,44.7,11.3,42,14.1z"/>
		</g>
	</g>
	<g>
		<g>
			<g>
				<rect x="31.5" y="19" fill="#BEBECC" width="1" height="3"/>
			</g>
		</g>
	</g>
	<g>
		<g>
			<g>
				<rect x="31.5" y="44" fill="#BEBECC" width="1" height="3"/>
			</g>
		</g>
	</g>
	<g>
		<g>
			<g>
				
					<rect x="40.3" y="22.7" transform="matrix(0.7071 0.7071 -0.7071 0.7071 29.0459 -21.8008)" fill="#BEBECC" width="1" height="3"/>
			</g>
		</g>
	</g>
	<g>
		<g>
			<g>
				
					<rect x="22.7" y="40.3" transform="matrix(0.7071 0.7071 -0.7071 0.7071 36.3683 -4.1231)" fill="#BEBECC" width="1" height="3"/>
			</g>
		</g>
	</g>
	<g>
		<g>
			<g>
				<rect x="43" y="32.5" fill="#BEBECC" width="3" height="1"/>
			</g>
		</g>
	</g>
	<g>
		<g>
			<g>
				<rect x="18" y="32.5" fill="#BEBECC" width="3" height="1"/>
			</g>
		</g>
	</g>
	<g>
		<g>
			<g>
				
					<rect x="40.3" y="40.3" transform="matrix(-0.7071 0.7071 -0.7071 -0.7071 99.3008 42.5459)" fill="#BEBECC" width="1" height="3"/>
			</g>
		</g>
	</g>
	<g>
		<g>
			<g>
				
					<rect x="22.7" y="22.7" transform="matrix(-0.7071 0.7071 -0.7071 -0.7071 56.6231 24.8683)" fill="#BEBECC" width="1" height="3"/>
			</g>
		</g>
	</g>
	<g>
		<g>
			<path fill="#514F6D" d="M38,34h-6c-0.6,0-1-0.4-1-1v-8c0-0.6,0.4-1,1-1h0c0.6,0,1,0.4,1,1v6c0,0.6,0.4,1,1,1h4c0.6,0,1,0.4,1,1
				l0,0C39,33.6,38.6,34,38,34z"/>
		</g>
	</g>
	<g>
		<g>
			<circle fill="#FCDA4F" cx="32" cy="33" r="2"/>
		</g>
	</g>
</g>
</svg>
